<?xml version="1.0" encoding="UTF-8"?>
<svg xmlns="http://www.w3.org/2000/svg" xmlns:xlink="http://www.w3.org/1999/xlink" viewBox="0 0 24 24" width="24px" height="24px">
<g id="surface303654367">
<path style=" stroke:none;fill-rule:nonzero;fill:rgb(100%,100%,100%);fill-opacity:1;" d="M 4 3 C 2.898438 3 2 3.898438 2 5 L 2 19 C 2 20.101562 2.898438 21 4 21 L 9.585938 21 C 9.332031 20.367188 9.15625 19.699219 9.070312 19 L 4 19 L 4 5 L 20 5 L 20 9 L 22 9 L 22 5 C 22 3.898438 21.101562 3 20 3 Z M 6 7 L 6 9 L 8 9 L 8 7 Z M 16 7 L 16 9 L 18 9 L 18 7 Z M 16 10 L 16 12.09375 C 13.171875 12.574219 11 15.042969 11 18 C 11 21.300781 13.699219 24 17 24 C 20.300781 24 23 21.300781 23 18 C 23 16.40625 22.367188 14.953125 21.34375 13.878906 L 22.601562 12.203125 L 21.003906 11 L 19.746094 12.675781 C 19.203125 12.394531 18.617188 12.195312 18 12.09375 L 18 10 Z M 6 11 L 6 13 L 8 13 L 8 11 Z M 17 14 C 19.199219 14 21 15.800781 21 18 C 21 20.199219 19.199219 22 17 22 C 14.800781 22 13 20.199219 13 18 C 13 15.800781 14.800781 14 17 14 Z M 6 15 L 6 17 L 8 17 L 8 15 Z M 16.507812 15 L 16.5 17.53125 L 15.011719 19.175781 L 16.074219 20.238281 L 18 18.140625 L 18 15 Z M 16.507812 15 "/>
</g>
</svg>
